<svg width="22" height="19" viewBox="0 0 16 13" fill="none" xmlns="http://www.w3.org/2000/svg">
<path d="M13.3182 1.77319C13.314 1.76515 13.3071 1.75885 13.2988 1.75542C12.3308 1.3113 11.3093 0.994615 10.2599 0.813277C10.2503 0.811504 10.2405 0.812783 10.2317 0.816931C10.2229 0.821079 10.2157 0.827886 10.211 0.836382C10.0719 1.08884 9.94568 1.34815 9.83272 1.61334C8.70148 1.44161 7.5508 1.44161 6.41956 1.61334C6.30585 1.34748 6.17756 1.0881 6.03527 0.836382C6.03039 0.82807 6.02312 0.821421 6.01441 0.817299C6.00569 0.813178 5.99594 0.811777 5.98642 0.813277C4.93687 0.994234 3.91531 1.31095 2.94747 1.75545C2.93918 1.75896 2.93219 1.76496 2.92746 1.77261C0.991957 4.66303 0.46175 7.48238 0.721852 10.2668C0.722584 10.2736 0.72468 10.2802 0.728017 10.2862C0.731354 10.2922 0.735863 10.2975 0.741276 10.3017C1.8683 11.1362 3.12889 11.7732 4.46925 12.1854C4.47869 12.1883 4.48877 12.1881 4.49814 12.1851C4.5075 12.182 4.5157 12.1761 4.52163 12.1683C4.80952 11.7766 5.0646 11.3618 5.28429 10.9281C5.28731 10.9222 5.28904 10.9157 5.28935 10.909C5.28966 10.9023 5.28856 10.8957 5.28612 10.8895C5.28367 10.8833 5.27994 10.8776 5.27517 10.873C5.27039 10.8683 5.26469 10.8647 5.25842 10.8624C4.85617 10.7085 4.46675 10.523 4.0938 10.3076C4.08703 10.3036 4.08134 10.298 4.07724 10.2913C4.07313 10.2846 4.07074 10.277 4.07028 10.2691C4.06982 10.2613 4.07129 10.2535 4.07457 10.2463C4.07786 10.2392 4.08285 10.233 4.08911 10.2282C4.16736 10.1696 4.24566 10.1086 4.32039 10.047C4.32703 10.0415 4.33506 10.038 4.34358 10.0369C4.35211 10.0357 4.36078 10.037 4.36863 10.0405C6.81195 11.1556 9.45717 11.1556 11.8716 10.0405C11.8794 10.0367 11.8882 10.0353 11.8968 10.0364C11.9055 10.0374 11.9137 10.0409 11.9204 10.0464C11.9952 10.108 12.0734 10.1696 12.1523 10.2282C12.1586 10.2329 12.1636 10.2391 12.1669 10.2462C12.1703 10.2533 12.1718 10.2611 12.1714 10.269C12.171 10.2768 12.1687 10.2844 12.1646 10.2912C12.1606 10.2979 12.1549 10.3035 12.1482 10.3076C11.7761 10.5248 11.3863 10.7102 10.983 10.8618C10.9767 10.8642 10.971 10.8679 10.9663 10.8726C10.9616 10.8774 10.9579 10.8831 10.9555 10.8893C10.9531 10.8956 10.952 10.9023 10.9524 10.909C10.9528 10.9156 10.9545 10.9222 10.9576 10.9281C11.181 11.3594 11.4357 11.7736 11.7197 12.1676C11.7254 12.1757 11.7336 12.1817 11.743 12.1849C11.7524 12.1881 11.7626 12.1883 11.7721 12.1854C13.1148 11.7745 14.3776 11.1375 15.5061 10.3017C15.5115 10.2977 15.5161 10.2926 15.5195 10.2867C15.5228 10.2807 15.5249 10.2742 15.5255 10.2674C15.8369 7.0483 15.0042 4.25206 13.3182 1.77319ZM5.64918 8.57138C4.91356 8.57138 4.30744 7.89632 4.30744 7.06727C4.30744 6.23821 4.90181 5.5631 5.64918 5.5631C6.40239 5.5631 7.00265 6.24408 6.9909 7.06722C6.9909 7.89632 6.3965 8.57138 5.64918 8.57138ZM10.61 8.57138C9.87441 8.57138 9.26828 7.89632 9.26828 7.06727C9.26828 6.23821 9.86265 5.5631 10.61 5.5631C11.3633 5.5631 11.9635 6.24408 11.9517 7.06722C11.9517 7.89632 11.3633 8.57138 10.61 8.57138Z" fill="white"/>
</svg>
