<svg width="20" height="18" viewBox="0 0 13 13" fill="none" xmlns="http://www.w3.org/2000/svg">
<g clip-path="url(#clip0_8_167)">
<path d="M4.2123 10.0902C4.2123 10.141 4.15391 10.1816 4.08027 10.1816C3.99648 10.1893 3.93809 10.1486 3.93809 10.0902C3.93809 10.0395 3.99648 9.99883 4.07012 9.99883C4.14629 9.99121 4.2123 10.0318 4.2123 10.0902ZM3.42266 9.97598C3.40488 10.0268 3.45566 10.0852 3.53184 10.1004C3.59785 10.1258 3.67402 10.1004 3.68926 10.0496C3.70449 9.99883 3.65625 9.94043 3.58008 9.91758C3.51406 9.89981 3.44043 9.92519 3.42266 9.97598ZM4.54492 9.93281C4.47129 9.95059 4.42051 9.99883 4.42812 10.0572C4.43574 10.108 4.50176 10.141 4.57793 10.1232C4.65156 10.1055 4.70234 10.0572 4.69473 10.0064C4.68711 9.9582 4.61855 9.9252 4.54492 9.93281ZM6.21563 0.203125C2.69395 0.203125 0 2.87676 0 6.39844C0 9.21426 1.77227 11.6238 4.30371 12.4719C4.62871 12.5303 4.74297 12.3297 4.74297 12.1646C4.74297 12.0072 4.73535 11.1389 4.73535 10.6057C4.73535 10.6057 2.95801 10.9865 2.58477 9.84902C2.58477 9.84902 2.29531 9.11016 1.87891 8.91973C1.87891 8.91973 1.29746 8.52109 1.91953 8.52871C1.91953 8.52871 2.55176 8.57949 2.89961 9.18379C3.45566 10.1639 4.3875 9.88203 4.75059 9.71445C4.80898 9.3082 4.97402 9.02637 5.15684 8.85879C3.7375 8.70137 2.30547 8.4957 2.30547 6.05312C2.30547 5.35488 2.49844 5.00449 2.90469 4.55762C2.83867 4.39258 2.62285 3.71211 2.9707 2.83359C3.50137 2.66855 4.72266 3.51914 4.72266 3.51914C5.23047 3.37695 5.77637 3.30332 6.31719 3.30332C6.85801 3.30332 7.40391 3.37695 7.91172 3.51914C7.91172 3.51914 9.13301 2.66602 9.66367 2.83359C10.0115 3.71465 9.7957 4.39258 9.72969 4.55762C10.1359 5.00703 10.3848 5.35742 10.3848 6.05312C10.3848 8.50332 8.88926 8.69883 7.46992 8.85879C7.70352 9.05937 7.90156 9.44023 7.90156 10.0369C7.90156 10.8926 7.89395 11.9514 7.89395 12.1596C7.89395 12.3246 8.01074 12.5252 8.3332 12.4668C10.8723 11.6238 12.5938 9.21426 12.5938 6.39844C12.5938 2.87676 9.7373 0.203125 6.21563 0.203125ZM2.46797 8.96035C2.43496 8.98574 2.44258 9.04414 2.48574 9.09238C2.52637 9.13301 2.58477 9.15078 2.61777 9.11777C2.65078 9.09238 2.64316 9.03398 2.6 8.98574C2.55938 8.94512 2.50098 8.92734 2.46797 8.96035ZM2.19375 8.75469C2.17598 8.78769 2.20137 8.82832 2.25215 8.85371C2.29277 8.8791 2.34355 8.87148 2.36133 8.83594C2.3791 8.80293 2.35371 8.76231 2.30293 8.73691C2.25215 8.72168 2.21152 8.7293 2.19375 8.75469ZM3.01641 9.65859C2.97578 9.6916 2.99102 9.76777 3.04941 9.81602C3.10781 9.87441 3.18145 9.88203 3.21445 9.84141C3.24746 9.8084 3.23223 9.73223 3.18145 9.68398C3.12559 9.62559 3.04941 9.61797 3.01641 9.65859ZM2.72695 9.28535C2.68633 9.31074 2.68633 9.37676 2.72695 9.43516C2.76758 9.49356 2.83613 9.51894 2.86914 9.49355C2.90977 9.46055 2.90977 9.39453 2.86914 9.33613C2.83359 9.27773 2.76758 9.25234 2.72695 9.28535Z" fill="white"/>
</g>
<defs>
<clipPath id="clip0_8_167">
<rect width="12.5938" height="13" fill="white"/>
</clipPath>
</defs>
</svg>
