<svg width="20" height="18" viewBox="0 0 14 13" fill="none" xmlns="http://www.w3.org/2000/svg">
<g clip-path="url(#clip0_8_168)">
<path d="M9.22852 6.5C9.22852 7.06367 9.19805 7.60703 9.14473 8.125H4.4373C4.38145 7.60703 4.35352 7.06367 4.35352 6.5C4.35352 5.93633 4.38398 5.39297 4.4373 4.875H9.14473C9.20059 5.39297 9.22852 5.93633 9.22852 6.5ZM9.95977 4.875H13.0854C13.2199 5.39551 13.291 5.93887 13.291 6.5C13.291 7.06113 13.2199 7.60449 13.0854 8.125H9.95977C10.0131 7.60195 10.041 7.05859 10.041 6.5C10.041 5.94141 10.0131 5.39805 9.95977 4.875ZM12.8187 4.0625H9.85566C9.60176 2.44004 9.09902 1.08164 8.45156 0.213281C10.4396 0.738867 12.057 2.18105 12.8162 4.0625H12.8187ZM9.03301 4.0625H4.54902C4.70391 3.13828 4.94258 2.3207 5.23457 1.65801C5.50117 1.05879 5.79824 0.624609 6.08516 0.350391C6.36953 0.08125 6.60566 0 6.79102 0C6.97637 0 7.2125 0.08125 7.49687 0.350391C7.78379 0.624609 8.08086 1.05879 8.34746 1.65801C8.64199 2.31816 8.87812 3.13574 9.03301 4.0625ZM3.72637 4.0625H0.763281C1.525 2.18105 3.13984 0.738867 5.13047 0.213281C4.48301 1.08164 3.98027 2.44004 3.72637 4.0625ZM0.49668 4.875H3.62227C3.56895 5.39805 3.54102 5.94141 3.54102 6.5C3.54102 7.05859 3.56895 7.60195 3.62227 8.125H0.49668C0.362109 7.60449 0.291016 7.06113 0.291016 6.5C0.291016 5.93887 0.362109 5.39551 0.49668 4.875ZM5.23457 11.3395C4.94004 10.6793 4.70391 9.86172 4.54902 8.9375H9.03301C8.87812 9.86172 8.63945 10.6793 8.34746 11.3395C8.08086 11.9387 7.78379 12.3729 7.49687 12.6471C7.2125 12.9187 6.97637 13 6.79102 13C6.60566 13 6.36953 12.9188 6.08516 12.6496C5.79824 12.3754 5.50117 11.9412 5.23457 11.342V11.3395ZM3.72637 8.9375C3.98027 10.56 4.48301 11.9184 5.13047 12.7867C3.13984 12.2611 1.525 10.8189 0.763281 8.9375H3.72637ZM12.8187 8.9375C12.057 10.8189 10.4422 12.2611 8.4541 12.7867C9.10156 11.9184 9.60176 10.56 9.8582 8.9375H12.8187Z" fill="white"/>
</g>
<defs>
<clipPath id="clip0_8_168">
<rect width="13" height="13" fill="white" transform="translate(0.291016)"/>
</clipPath>
</defs>
</svg>
